<?xml version="1.0" encoding="utf-8"?>
<!-- Generator: Adobe Illustrator 15.0.2, SVG Export Plug-In . SVG Version: 6.00 Build 0)  -->
<!DOCTYPE svg PUBLIC "-//W3C//DTD SVG 1.1//EN" "http://www.w3.org/Graphics/SVG/1.1/DTD/svg11.dtd">
<svg version="1.1" id="レイヤー_1" xmlns="http://www.w3.org/2000/svg" xmlns:xlink="http://www.w3.org/1999/xlink" x="0px"
	 y="0px" width="1024px" height="1024px" viewBox="0 0 1024 1024" enable-background="new 0 0 1024 1024" xml:space="preserve">
<g id="minimal">
	<g enable-background="new    ">
		<path d="M190.476,842v-12.66c18.001,0,27.008-7.028,27.008-21.1v-76.805c0-31.228-11.677-46.842-35.026-46.842
			c-20.256,0-34.182,11.678-41.778,35.026v82.29c0,18.291,9.139,27.43,27.43,27.43V842H79.49v-12.66
			c17.157,0,25.742-9.706,25.742-29.118v-57.813c0-38.541-11.677-57.814-35.026-57.814c-28.136,0-42.2,17.164-42.2,51.484v70.474
			c0,15.192,9.139,22.788,27.43,22.788V842h-86.51v-12.66c15.753,0,23.632-7.028,23.632-21.1V700.63
			c0-8.717-9.568-13.082-28.696-13.082v-10.972l60.768-14.771c1.121,1.128,1.688,3.943,1.688,8.44v25.32
			c4.497-8.44,11.816-16.175,21.944-23.21c10.128-7.029,22.082-10.551,35.87-10.551c5.064,0,10.478,0.989,16.247,2.954
			c5.763,1.972,11.11,4.576,16.036,7.808c4.919,3.237,9.139,6.963,12.66,11.183c3.514,4.22,5.835,8.724,6.963,13.504
			c5.341-10.688,13.57-19.267,24.687-25.742c11.11-6.468,22.715-9.706,34.815-9.706c16.88,0,30.384,5.348,40.512,16.036
			c10.128,10.695,15.192,25.742,15.192,45.154v85.244c0,14.071,9.139,21.1,27.43,21.1V842H190.476z"/>
		<path d="M272.761,842v-12.66c19.412,0,29.118-8.578,29.118-25.742V719.62c0-22.221-8.585-33.338-25.742-33.338v-11.395
			l60.768-13.082v143.48c0,16.036,10.688,24.054,32.072,24.054V842H272.761z M316.227,615.386c-14.915,0-22.366-8.578-22.366-25.742
			c0-16.035,8.018-24.054,24.054-24.054c15.192,0,22.788,8.019,22.788,24.054C340.703,606.808,332.54,615.386,316.227,615.386z"/>
		<path d="M478.271,842v-12.66c18.283,0,27.43-5.908,27.43-17.724v-69.208c0-38.541-13.787-57.814-41.356-57.814
			c-28.136,0-42.2,17.164-42.2,51.484v75.538c0,11.815,10.128,17.724,30.384,17.724V842h-89.464v-12.66
			c15.753,0,23.632-6.469,23.632-19.412V702.318c0-9.845-7.596-14.771-22.788-14.771h-5.908v-10.972l60.768-14.771
			c1.121,1.128,1.688,3.943,1.688,8.44v25.32c2.249-4.221,5.13-8.368,8.651-12.449c3.514-4.075,7.873-7.662,13.082-10.761
			c5.203-3.093,11.322-5.625,18.357-7.597c7.029-1.965,15.046-2.954,24.054-2.954c5.064,0,10.826,1.056,17.301,3.165
			c6.469,2.11,12.66,5.486,18.568,10.128c5.908,4.643,10.828,10.623,14.77,17.936c3.938,7.319,5.908,16.181,5.908,26.586v93.262
			c0,10.972,9.139,16.458,27.432,16.458V842H478.271z"/>
		<path d="M562.668,842v-12.66c19.412,0,29.118-8.578,29.118-25.742V719.62c0-22.221-8.585-33.338-25.742-33.338v-11.395
			l60.769-13.082v143.48c0,16.036,10.688,24.054,32.071,24.054V842H562.668z M606.134,615.386c-14.915,0-22.365-8.578-22.365-25.742
			c0-16.035,8.018-24.054,24.054-24.054c15.192,0,22.788,8.019,22.788,24.054C630.61,606.808,622.447,615.386,606.134,615.386z"/>
		<path d="M874.522,842v-12.66c18.001,0,27.009-7.028,27.009-21.1v-76.805c0-31.228-11.678-46.842-35.026-46.842
			c-20.256,0-34.182,11.678-41.778,35.026v82.29c0,18.291,9.14,27.43,27.431,27.43V842h-88.62v-12.66
			c17.156,0,25.742-9.706,25.742-29.118v-57.813c0-38.541-11.678-57.814-35.026-57.814c-28.136,0-42.2,17.164-42.2,51.484v70.474
			c0,15.192,9.139,22.788,27.43,22.788V842h-86.51v-12.66c15.753,0,23.632-7.028,23.632-21.1V700.63
			c0-8.717-9.567-13.082-28.695-13.082v-10.972l60.768-14.771c1.121,1.128,1.688,3.943,1.688,8.44v25.32
			c4.496-8.44,11.815-16.175,21.943-23.21c10.128-7.029,22.083-10.551,35.87-10.551c5.064,0,10.478,0.989,16.247,2.954
			c5.763,1.972,11.11,4.576,16.036,7.808c4.919,3.237,9.139,6.963,12.66,11.183c3.515,4.22,5.835,8.724,6.963,13.504
			c5.341-10.688,13.57-19.267,24.687-25.742c11.111-6.468,22.716-9.706,34.815-9.706c16.88,0,30.384,5.348,40.512,16.036
			c10.128,10.695,15.192,25.742,15.192,45.154v85.244c0,14.071,9.139,21.1,27.43,21.1V842H874.522z"/>
		<path d="M956.808,842v-12.66c19.412,0,29.118-8.578,29.118-25.742V719.62c0-22.221-8.585-33.338-25.742-33.338v-11.395
			l60.769-13.082v143.48c0,16.036,10.688,24.054,32.071,24.054V842H956.808z M1000.273,615.386
			c-14.915,0-22.365-8.578-22.365-25.742c0-16.035,8.018-24.054,24.054-24.054c15.192,0,22.788,8.019,22.788,24.054
			C1024.75,606.808,1016.587,615.386,1000.273,615.386z"/>
		<path d="M1162.317,842v-12.66c18.284,0,27.43-5.908,27.43-17.724v-69.208c0-38.541-13.787-57.814-41.355-57.814
			c-28.136,0-42.2,17.164-42.2,51.484v75.538c0,11.815,10.128,17.724,30.384,17.724V842h-89.464v-12.66
			c15.753,0,23.632-6.469,23.632-19.412V702.318c0-9.845-7.596-14.771-22.788-14.771h-5.907v-10.972l60.768-14.771
			c1.121,1.128,1.688,3.943,1.688,8.44v25.32c2.248-4.221,5.13-8.368,8.65-12.449c3.515-4.075,7.873-7.662,13.082-10.761
			c5.203-3.093,11.321-5.625,18.357-7.597c7.028-1.965,15.047-2.954,24.054-2.954c5.064,0,10.827,1.056,17.302,3.165
			c6.469,2.11,12.66,5.486,18.568,10.128c5.908,4.643,10.827,10.623,14.77,17.936c3.937,7.319,5.908,16.181,5.908,26.586v93.262
			c0,10.972,9.139,16.458,27.431,16.458V842H1162.317z"/>
		<path d="M1246.715,842v-12.66c19.412,0,29.118-8.578,29.118-25.742V719.62c0-22.221-8.585-33.338-25.742-33.338v-11.395
			l60.769-13.082v143.48c0,16.036,10.688,24.054,32.071,24.054V842H1246.715z M1290.181,615.386
			c-14.915,0-22.365-8.578-22.365-25.742c0-16.035,8.018-24.054,24.054-24.054c15.192,0,22.788,8.019,22.788,24.054
			C1314.657,606.808,1306.494,615.386,1290.181,615.386z"/>
		<path d="M1558.569,842v-12.66c18.001,0,27.009-7.028,27.009-21.1v-76.805c0-31.228-11.678-46.842-35.026-46.842
			c-20.256,0-34.182,11.678-41.778,35.026v82.29c0,18.291,9.14,27.43,27.431,27.43V842h-88.62v-12.66
			c17.156,0,25.742-9.706,25.742-29.118v-57.813c0-38.541-11.678-57.814-35.026-57.814c-28.136,0-42.2,17.164-42.2,51.484v70.474
			c0,15.192,9.139,22.788,27.43,22.788V842h-86.51v-12.66c15.753,0,23.632-7.028,23.632-21.1V700.63
			c0-8.717-9.567-13.082-28.695-13.082v-10.972l60.768-14.771c1.121,1.128,1.688,3.943,1.688,8.44v25.32
			c4.496-8.44,11.815-16.175,21.943-23.21c10.128-7.029,22.083-10.551,35.87-10.551c5.064,0,10.478,0.989,16.247,2.954
			c5.763,1.972,11.11,4.576,16.036,7.808c4.919,3.237,9.139,6.963,12.66,11.183c3.515,4.22,5.835,8.724,6.963,13.504
			c5.341-10.688,13.57-19.267,24.687-25.742c11.111-6.468,22.716-9.706,34.815-9.706c16.88,0,30.384,5.348,40.512,16.036
			c10.128,10.695,15.192,25.742,15.192,45.154v85.244c0,14.071,9.139,21.1,27.43,21.1V842H1558.569z"/>
		<path d="M1640.854,842v-12.66c19.412,0,29.118-8.578,29.118-25.742V719.62c0-22.221-8.585-33.338-25.742-33.338v-11.395
			l60.769-13.082v143.48c0,16.036,10.688,24.054,32.071,24.054V842H1640.854z M1684.319,615.386
			c-14.915,0-22.365-8.578-22.365-25.742c0-16.035,8.018-24.054,24.054-24.054c15.192,0,22.788,8.019,22.788,24.054
			C1708.796,606.808,1700.633,615.386,1684.319,615.386z"/>
		<path d="M1846.364,842v-12.66c18.284,0,27.43-5.908,27.43-17.724v-69.208c0-38.541-13.787-57.814-41.355-57.814
			c-28.136,0-42.2,17.164-42.2,51.484v75.538c0,11.815,10.128,17.724,30.384,17.724V842h-89.464v-12.66
			c15.753,0,23.632-6.469,23.632-19.412V702.318c0-9.845-7.596-14.771-22.788-14.771h-5.907v-10.972l60.768-14.771
			c1.121,1.128,1.688,3.943,1.688,8.44v25.32c2.248-4.221,5.13-8.368,8.65-12.449c3.515-4.075,7.873-7.662,13.082-10.761
			c5.203-3.093,11.321-5.625,18.357-7.597c7.028-1.965,15.047-2.954,24.054-2.954c5.064,0,10.827,1.056,17.302,3.165
			c6.469,2.11,12.66,5.486,18.568,10.128c5.908,4.643,10.827,10.623,14.77,17.936c3.937,7.319,5.908,16.181,5.908,26.586v93.262
			c0,10.972,9.139,16.458,27.431,16.458V842H1846.364z"/>
		<path d="M1930.762,842v-12.66c19.412,0,29.118-8.578,29.118-25.742V719.62c0-22.221-8.585-33.338-25.742-33.338v-11.395
			l60.769-13.082v143.48c0,16.036,10.688,24.054,32.071,24.054V842H1930.762z M1974.228,615.386
			c-14.915,0-22.365-8.578-22.365-25.742c0-16.035,8.018-24.054,24.054-24.054c15.192,0,22.788,8.019,22.788,24.054
			C1998.704,606.808,1990.541,615.386,1974.228,615.386z"/>
		<path d="M2242.616,842v-12.66c18.001,0,27.009-7.028,27.009-21.1v-76.805c0-31.228-11.678-46.842-35.026-46.842
			c-20.256,0-34.182,11.678-41.778,35.026v82.29c0,18.291,9.14,27.43,27.431,27.43V842h-88.62v-12.66
			c17.156,0,25.742-9.706,25.742-29.118v-57.813c0-38.541-11.678-57.814-35.026-57.814c-28.136,0-42.2,17.164-42.2,51.484v70.474
			c0,15.192,9.139,22.788,27.43,22.788V842h-86.51v-12.66c15.753,0,23.632-7.028,23.632-21.1V700.63
			c0-8.717-9.567-13.082-28.695-13.082v-10.972l60.768-14.771c1.121,1.128,1.688,3.943,1.688,8.44v25.32
			c4.496-8.44,11.815-16.175,21.943-23.21c10.128-7.029,22.083-10.551,35.87-10.551c5.064,0,10.478,0.989,16.247,2.954
			c5.763,1.972,11.11,4.576,16.036,7.808c4.919,3.237,9.139,6.963,12.66,11.183c3.515,4.22,5.835,8.724,6.963,13.504
			c5.341-10.688,13.57-19.267,24.687-25.742c11.111-6.468,22.716-9.706,34.815-9.706c16.88,0,30.384,5.348,40.512,16.036
			c10.128,10.695,15.192,25.742,15.192,45.154v85.244c0,14.071,9.139,21.1,27.43,21.1V842H2242.616z"/>
		<path d="M2497.076,824.276c-4.22,14.915-15.475,22.365-33.76,22.365c-16.036,0-26.164-9.139-30.384-27.43
			c-20.256,18.291-41.778,27.43-64.566,27.43c-14.915,0-25.887-3.165-32.916-9.494c-7.035-6.33-10.55-16.386-10.55-30.174
			c0-34.604,34.881-58.235,104.656-70.896V719.62c0-27.568-10.695-41.356-32.072-41.356c-9.284,0-17.302,1.55-24.054,4.643
			c-6.752,3.099-10.128,9.007-10.128,17.724c1.688,1.128,2.954,2.888,3.798,5.275c0.844,2.394,1.266,4.853,1.266,7.385
			c0,10.695-6.475,16.036-19.411,16.036c-4.787,0-8.862-1.543-12.238-4.643c-3.376-3.092-5.064-7.872-5.064-14.348
			c0-6.469,1.965-12.66,5.908-18.568c3.937-5.907,9.073-11.037,15.403-15.402c6.33-4.358,13.643-7.873,21.943-10.55
			c8.295-2.671,16.808-4.01,25.531-4.01c23.349,0,39.945,4.365,49.796,13.082c9.845,8.724,14.771,23.21,14.771,43.466v91.574
			c0,10.412,4.78,15.614,14.348,15.614c4.497,0,8.862-1.543,13.082-4.642L2497.076,824.276z M2431.244,750.426
			c-8.723,0.844-17.302,2.321-25.741,4.432c-8.44,2.109-15.971,5.063-22.577,8.861c-6.613,3.798-11.961,8.651-16.036,14.56
			c-4.082,5.907-6.119,13.227-6.119,21.943c0,18.291,8.862,27.431,26.586,27.431c7.873,0,14.414-1.193,19.623-3.587
			c5.202-2.388,9.423-5.553,12.66-9.495c3.23-3.937,5.763-8.295,7.596-13.082c1.827-4.78,3.165-9.562,4.009-14.349V750.426z"/>
		<path d="M2478.084,842v-12.66c19.129,0,28.696-6.469,28.696-19.412V595.974c0-13.78-10.834-20.678-32.494-20.678v-11.394
			l67.942-12.66v260.374c0,11.815,10.688,17.724,32.071,17.724V842H2478.084z"/>
		<path d="M2568.389,842v-12.66c19.412,0,29.118-8.578,29.118-25.742V719.62c0-22.221-8.585-33.338-25.742-33.338v-11.395
			l60.769-13.082v143.48c0,16.036,10.688,24.054,32.071,24.054V842H2568.389z M2611.854,615.386
			c-14.915,0-22.365-8.578-22.365-25.742c0-16.035,8.018-24.054,24.054-24.054c15.192,0,22.788,8.019,22.788,24.054
			C2636.331,606.808,2628.168,615.386,2611.854,615.386z"/>
		<path d="M2765.459,718.354c-12.944-28.973-30.107-43.466-51.484-43.466c-8.724,0-16.319,2.11-22.788,6.33
			c-6.475,4.221-9.706,11.256-9.706,21.101c0,5.631,2.598,10.411,7.808,14.348c5.202,3.943,11.671,7.596,19.411,10.972
			c7.734,3.376,16.103,6.752,25.109,10.128c9,3.376,17.368,7.386,25.109,12.027c7.734,4.642,14.202,10.2,19.412,16.669
			c5.202,6.476,7.807,14.493,7.807,24.054c0,8.44-1.55,16.036-4.643,22.788c-3.099,6.752-7.385,12.521-12.87,17.303
			c-5.486,4.786-11.816,8.65-18.99,11.604s-14.704,4.991-22.577,6.119c-14.071,0-26.586-3.659-37.558-10.972
			c-6.192,4.78-14.632,7.872-25.32,9.283c-4.504-20.532-6.752-42.477-6.752-65.832h11.394c3.093,10.129,6.469,18.641,10.128,25.531
			c3.653,6.897,7.734,12.383,12.238,16.458c4.497,4.082,9.561,6.963,15.192,8.651c5.624,1.688,11.954,2.532,18.989,2.532
			c23.349,0,35.026-9.14,35.026-27.431c0-5.341-0.916-9.917-2.743-13.715c-1.833-3.798-4.642-7.029-8.439-9.706
			c-3.798-2.67-8.513-5.202-14.138-7.596c-5.631-2.387-12.237-4.854-19.834-7.385c-5.907-1.965-12.237-4.432-18.989-7.386
			s-13.017-6.541-18.779-10.761c-5.77-4.22-10.55-9.211-14.348-14.98c-3.799-5.764-5.697-12.449-5.697-20.046
			c0-7.596,1.121-14.624,3.376-21.1c2.248-6.469,5.697-12.093,10.339-16.88c4.642-4.78,10.616-8.506,17.935-11.183
			c7.312-2.671,16.036-4.01,26.164-4.01c12.094,0,23.909,3.376,35.448,10.128c4.497-3.652,9.983-6.468,16.458-8.439
			c5.064,19.412,7.596,37.703,7.596,54.859H2765.459z"/>
		<path d="M2999.246,842v-12.66c18.001,0,27.009-7.028,27.009-21.1v-76.805c0-31.228-11.678-46.842-35.026-46.842
			c-20.256,0-34.182,11.678-41.778,35.026v82.29c0,18.291,9.14,27.43,27.431,27.43V842h-88.62v-12.66
			c17.156,0,25.742-9.706,25.742-29.118v-57.813c0-38.541-11.678-57.814-35.026-57.814c-28.136,0-42.2,17.164-42.2,51.484v70.474
			c0,15.192,9.139,22.788,27.43,22.788V842h-86.51v-12.66c15.753,0,23.632-7.028,23.632-21.1V700.63
			c0-8.717-9.567-13.082-28.695-13.082v-10.972l60.768-14.771c1.121,1.128,1.688,3.943,1.688,8.44v25.32
			c4.496-8.44,11.815-16.175,21.943-23.21c10.128-7.029,22.083-10.551,35.87-10.551c5.064,0,10.478,0.989,16.247,2.954
			c5.763,1.972,11.11,4.576,16.036,7.808c4.919,3.237,9.139,6.963,12.66,11.183c3.515,4.22,5.835,8.724,6.963,13.504
			c5.341-10.688,13.57-19.267,24.687-25.742c11.111-6.468,22.716-9.706,34.815-9.706c16.88,0,30.384,5.348,40.512,16.036
			c10.128,10.695,15.192,25.742,15.192,45.154v85.244c0,14.071,9.139,21.1,27.43,21.1V842H2999.246z"/>
	</g>
</g>
<g id="dots">
	<path d="M252.363,522.087c-1.922-2.281-7.396-3.926-8.447-6.64c-2.181-5.624,5.117-10.394,8.417-13.158
		c-8.848-6.347-23.495-7.168-33.832-7.301c-4.146-0.054-10.774,2.051-14,4.614c-2.191,1.742-5.579,6.393-6.634,8.945
		c-1.208,2.924-0.821,3.67,0.354,7.503c1.904,6.206,2.735,16.455-1.657,21.848c8.476,3.849,15.025,11.764,23.463,14.102
		c5.222,1.446,10.706,2.548,15.994-0.137c5.474-2.777,9.26-8.997,14.979-11.363l2.5-3
		C254.192,531.4,257.021,527.616,252.363,522.087z"/>
	<path d="M280,575.5v1.5c-1.62-7.459-14.43-6.729-15,1C264.239,588.315,281.443,585.851,280,575.5z"/>
	<g>
		<path fill="#020202" d="M308.498,458.002c-0.055-8.573-3.231-16.29-9.866-20.585c1.28-1.72,2.948-3.178,4.334-5.53
			c-2.229,1.36-4.06,3.219-6.471,4.328c-1.407-0.683-2.927-1.248-4.594-1.641c-6.782-1.601-12.178-2.426-18.595-5.619
			c-4.358-2.169-7.951-2.443-12.753-0.942c-1.107,0.347-2.234,0.8-3.354,1.333c-0.365-1.206-0.713-2.442-1.05-3.747
			c-1.311-5.077-8.654-12.317-4.822-17.516c-2.262-1.067-4.996-2.384-7.558-2.833c2.705-3.222,1.975-7.848,5.24-9.684
			c2.464-1.385,8.456-0.037,11.393-0.199c0.544-4.84-10.239-1.701-4.594-9.351c1.864-2.526,5.59-3.819,7.729-5.85
			c1.222-1.16,3.506-3.68,4.922-5.284c-3.124-2.119-7.065-5.104-6.068-9.391c-0.694,0.056-1.581-0.176-2.251-0.145
			c0.595-3.127,6.197-7.073,10.601-9.151c-4.047,1.497-9.17,3.238-11.772,1.732c1.74-4.322,14.744-6.933,19.313-9.351
			c7.896-4.179,17.27-7.932,25.801-11.13c-5.151,1.578-11.396,2.428-16.742,3.225c-4.057,0.604-7.975-0.092-12.077,0.874
			c-5.138,1.209-9.042,2.491-14.437,2.275c-8.34-0.334-5.665-1.708-8.329-7.467c-1.722-3.724-6.339-5.629-9.932-6.929
			c-6.592-2.384-18.86-5.582-25.583-2.485c-1.458,0.672-2.206,2.872-3.506,3.691c-1.884,1.189-3.341,0.154-5.252,1.654
			c-2.314,1.816-2.224,5.047-5.71,5.251c-1.642,0.096-4.851-2.791-6.96-2.848c0.445,6.711-0.031,14.406-0.492,21.115
			c-0.38-0.657-1.511-1.392-1.928-1.958c-4.857,5.123-12.257-4.277-17.823-3.114c23.586,7.542,4.957,17.877,11.943,32.071
			c2.855,5.801,9.114,9.073,14.07,12.209c4.396,2.783,5.833,6.768,9.252,9.957c1.414,1.318,1.14,2.769,3.98,2.131
			c0.146,2.365,0.009,4.854,0.188,7.22c1.594-5.653,7.969-2.051,12.513-2.012c4.967,0.043,11.385-2.916,15.805-1.024
			c4.331,1.853,5.803,8.384,7.498,12.967c1.353,3.653,1.521,6.149,1.165,8.464c-4.676,3.627-8.342,8.696-8.615,14.212
			c-0.51,10.24,0.404,23.906,8.353,31.159c7.541,6.881,19.434,10.88,29.903,9.336c0.707,0.488,1.364,0.805,2.083,1.001
			c3.396,7.145,6.583,17.791,11.95,22.065c-1.367-7.543-4.96-14.686-6.337-21.969c0.14-0.011,0.267-0.021,0.411-0.031
			c0.707-0.059,1.396-0.144,2.071-0.253c1.643,0.443,3.013,1.713,4.268,2.928c-0.024-1.541-0.077-2.838-0.178-4.008
			c3.187-1.202,5.991-3.203,8.525-6.155C309.688,474.562,308.549,465.928,308.498,458.002z"/>
		<path fill="#020202" d="M270.741,356.197c1.459-0.54,2.782-1.048,3.792-1.36C273.561,355.012,272.218,355.5,270.741,356.197z"/>
	</g>
</g>
</svg>
